<svg class="footer-svg" width="50" height="68" viewBox="0 0 50 68" fill="none" xmlns="http://www.w3.org/2000/svg">
<path class="footer-svg__path" d="M22.9492 34.0117L23.7018 33.3532L23.6799 33.3282L23.6563 33.3046L22.9492 34.0117ZM17.6855 37.293L16.9784 36.5859L16.9549 36.6094L16.933 36.6345L17.6855 37.293ZM17.6855 39.2754L16.933 39.9339L16.9549 39.959L16.9784 39.9825L17.6855 39.2754ZM22.9492 42.5566L23.6563 43.2637L23.6799 43.2402L23.7018 43.2151L22.9492 42.5566ZM22.9492 40.5742L23.7018 39.9157L23.6799 39.8907L23.6563 39.8671L22.9492 40.5742ZM20.625 38.25L19.9285 37.5324L19.2002 38.2394L19.9179 38.9571L20.625 38.25ZM22.9492 35.9941L23.6457 36.7117L23.6749 36.6833L23.7018 36.6526L22.9492 35.9941ZM34.8438 47H35.8438V46H34.8438V47ZM27.1875 19.7246H28.1875V18.7246H27.1875V19.7246ZM34.7754 27.3125H35.7754V26.3125H34.7754V27.3125ZM34.7754 47H33.7754V48H34.7754V47ZM26.9824 34.0117L26.2753 33.3046L26.2518 33.3282L26.2298 33.3532L26.9824 34.0117ZM26.9824 35.9941L26.2298 36.6526L26.2567 36.6833L26.2859 36.7117L26.9824 35.9941ZM29.3066 38.25L30.0137 38.9571L30.7315 38.2394L30.0031 37.5324L29.3066 38.25ZM26.9824 40.5742L26.2753 39.8671L26.2518 39.8907L26.2298 39.9157L26.9824 40.5742ZM26.9824 42.5566L26.2298 43.2151L26.2518 43.2402L26.2753 43.2637L26.9824 42.5566ZM32.2461 39.2754L32.9532 39.9825L32.9767 39.959L32.9987 39.9339L32.2461 39.2754ZM32.2461 37.293L32.9987 36.6345L32.9767 36.6094L32.9532 36.5859L32.2461 37.293ZM23.6563 33.3046C22.7189 32.3672 21.1971 32.3672 20.2597 33.3046L21.6739 34.7188C21.8303 34.5625 22.0858 34.5625 22.2421 34.7188L23.6563 33.3046ZM20.2597 33.3046L16.9784 36.5859L18.3927 38.0001L21.6739 34.7188L20.2597 33.3046ZM16.933 36.6345C16.1246 37.5584 16.1246 39.01 16.933 39.9339L18.4381 38.6169C18.2895 38.447 18.2895 38.1213 18.4381 37.9515L16.933 36.6345ZM16.9784 39.9825L20.2597 43.2637L21.6739 41.8495L18.3927 38.5683L16.9784 39.9825ZM20.2597 43.2637C20.8112 43.8152 21.4805 43.8984 21.9922 43.8984V41.8984C21.8357 41.8984 21.7559 41.8843 21.7156 41.8723C21.6893 41.8644 21.6837 41.8594 21.6739 41.8495L20.2597 43.2637ZM21.9922 43.8984C22.4609 43.8984 23.1161 43.8039 23.6563 43.2637L22.2421 41.8495C22.2298 41.8618 22.2198 41.8687 22.1952 41.8765C22.162 41.887 22.1006 41.8984 21.9922 41.8984V43.8984ZM23.7018 43.2151C24.5102 42.2912 24.5102 40.8396 23.7018 39.9157L22.1966 41.2327C22.3453 41.4026 22.3453 41.7283 22.1966 41.8981L23.7018 43.2151ZM23.6563 39.8671L21.3321 37.5429L19.9179 38.9571L22.2421 41.2813L23.6563 39.8671ZM21.3215 38.9676L23.6457 36.7117L22.2527 35.2766L19.9285 37.5324L21.3215 38.9676ZM23.7018 36.6526C24.5102 35.7287 24.5102 34.2771 23.7018 33.3532L22.1966 34.6702C22.3453 34.8401 22.3453 35.1658 22.1966 35.3356L23.7018 36.6526ZM37.5333 22.0937L32.4063 16.9667L30.9921 18.3809L36.1191 23.5079L37.5333 22.0937ZM32.4063 16.9667C31.409 15.9694 30.0649 15.375 28.623 15.375V17.375C29.5054 17.375 30.3488 17.7376 30.9921 18.3809L32.4063 16.9667ZM28.623 15.375H16.25V17.375H28.623V15.375ZM16.25 15.375C13.2266 15.375 10.875 17.8154 10.875 20.75H12.875C12.875 18.8995 14.3515 17.375 16.25 17.375V15.375ZM10.875 20.75V47H12.875V20.75H10.875ZM10.875 47C10.875 50.0132 13.2368 52.375 16.25 52.375V50.375C14.3413 50.375 12.875 48.9087 12.875 47H10.875ZM16.25 52.375H33.75V50.375H16.25V52.375ZM33.75 52.375C36.6846 52.375 39.125 50.0234 39.125 47H37.125C37.125 48.8985 35.6005 50.375 33.75 50.375V52.375ZM39.125 47V25.877H37.125V47H39.125ZM39.125 25.877C39.125 24.4351 38.5306 23.091 37.5333 22.0937L36.1191 23.5079C36.7624 24.1512 37.125 24.9946 37.125 25.877H39.125ZM33.8438 47C33.8438 47.0013 33.844 47.023 33.81 47.0556C33.7936 47.0713 33.7756 47.0826 33.7605 47.089C33.7454 47.0954 33.7413 47.0938 33.75 47.0938V49.0938C34.8086 49.0938 35.8438 48.2072 35.8438 47H33.8438ZM33.75 47.0938H16.25V49.0938H33.75V47.0938ZM16.25 47.0938C16.2081 47.0938 16.1889 47.0798 16.1795 47.0705C16.1702 47.0611 16.1562 47.0419 16.1562 47H14.1562C14.1562 48.1675 15.0825 49.0938 16.25 49.0938V47.0938ZM16.1562 47V20.8184H14.1562V47H16.1562ZM16.1562 20.8184C16.1562 20.7765 16.1702 20.7572 16.1795 20.7479C16.1889 20.7385 16.2081 20.7246 16.25 20.7246V18.7246C15.0825 18.7246 14.1562 19.6508 14.1562 20.8184H16.1562ZM16.25 20.7246H27.1875V18.7246H16.25V20.7246ZM26.1875 19.7246V25.125H28.1875V19.7246H26.1875ZM26.1875 25.125C26.1875 26.9078 27.5922 28.3125 29.375 28.3125V26.3125C28.6968 26.3125 28.1875 25.8032 28.1875 25.125H26.1875ZM29.375 28.3125H34.7754V26.3125H29.375V28.3125ZM33.7754 27.3125V47H35.7754V27.3125H33.7754ZM34.7754 48H34.8438V46H34.7754V48ZM26.2298 33.3532C25.4214 34.2771 25.4214 35.7287 26.2298 36.6526L27.735 35.3356C27.5864 35.1658 27.5864 34.8401 27.735 34.6702L26.2298 33.3532ZM26.2859 36.7117L28.6102 38.9676L30.0031 37.5324L27.6789 35.2766L26.2859 36.7117ZM28.5995 37.5429L26.2753 39.8671L27.6895 41.2813L30.0137 38.9571L28.5995 37.5429ZM26.2298 39.9157C25.4214 40.8396 25.4214 42.2912 26.2298 43.2151L27.735 41.8981C27.5864 41.7283 27.5864 41.4026 27.735 41.2327L26.2298 39.9157ZM26.2753 43.2637C26.8268 43.8152 27.4961 43.8984 28.0078 43.8984V41.8984C27.8513 41.8984 27.7715 41.8843 27.7312 41.8723C27.7049 41.8644 27.6994 41.8594 27.6895 41.8495L26.2753 43.2637ZM28.0078 43.8984C28.4766 43.8984 29.1318 43.8039 29.672 43.2637L28.2577 41.8495C28.2454 41.8618 28.2354 41.8687 28.2108 41.8765C28.1776 41.887 28.1162 41.8984 28.0078 41.8984V43.8984ZM29.672 43.2637L32.9532 39.9825L31.539 38.5683L28.2577 41.8495L29.672 43.2637ZM32.9987 39.9339C33.8071 39.01 33.8071 37.5584 32.9987 36.6345L31.4935 37.9515C31.6421 38.1213 31.6421 38.447 31.4935 38.6169L32.9987 39.9339ZM32.9532 36.5859L29.672 33.3046L28.2577 34.7188L31.539 38.0001L32.9532 36.5859ZM29.672 33.3046C28.7346 32.3672 27.2127 32.3672 26.2753 33.3046L27.6895 34.7188C27.8459 34.5625 28.1014 34.5625 28.2577 34.7188L29.672 33.3046Z" fill="#F5F3F8"/>
</svg>
