<svg class="footer-svg" width="50" height="68" viewBox="0 0 50 68" fill="none" aria-hidden="true">
    <path class="footer-svg__path" d="M23.3594 39.3438V40.3438H24.3594V39.3438H23.3594ZM23.3594 34.9688H24.3594V33.9688H23.3594V34.9688ZM26.6406 39.3438H25.6406V40.3438H26.6406V39.3438ZM25 15.375C14.7381 15.375 6.5 23.6866 6.5 33.875H8.5C8.5 24.7861 15.8478 17.375 25 17.375V15.375ZM6.5 33.875C6.5 44.1343 14.7407 52.375 25 52.375V50.375C15.8453 50.375 8.5 43.0297 8.5 33.875H6.5ZM25 52.375C35.1884 52.375 43.5 44.1369 43.5 33.875H41.5C41.5 43.0272 34.0889 50.375 25 50.375V52.375ZM43.5 33.875C43.5 23.684 35.191 15.375 25 15.375V17.375C34.0864 17.375 41.5 24.7886 41.5 33.875H43.5ZM25 26.125C25.6098 26.125 26.1875 26.7027 26.1875 27.3125H28.1875C28.1875 25.5981 26.7144 24.125 25 24.125V26.125ZM26.1875 27.3125C26.1875 27.9705 25.6302 28.5 25 28.5V30.5C26.694 30.5 28.1875 29.1154 28.1875 27.3125H26.1875ZM25 28.5C24.3218 28.5 23.8125 27.9907 23.8125 27.3125H21.8125C21.8125 29.0953 23.2172 30.5 25 30.5V28.5ZM23.8125 27.3125C23.8125 26.6823 24.342 26.125 25 26.125V24.125C23.1971 24.125 21.8125 25.6185 21.8125 27.3125H23.8125ZM27.7344 41.625H22.2656V43.625H27.7344V41.625ZM22.2656 41.625C21.8609 41.625 21.625 41.3891 21.625 40.9844H19.625C19.625 42.4937 20.7563 43.625 22.2656 43.625V41.625ZM21.625 40.9844C21.625 40.6205 21.888 40.3438 22.2656 40.3438V38.3438C20.7292 38.3438 19.625 39.5709 19.625 40.9844H21.625ZM22.2656 40.3438H23.3594V38.3438H22.2656V40.3438ZM24.3594 39.3438V34.9688H22.3594V39.3438H24.3594ZM23.3594 33.9688H22.8125V35.9688H23.3594V33.9688ZM22.8125 33.9688C22.4078 33.9688 22.1719 33.7329 22.1719 33.3281H20.1719C20.1719 34.8374 21.3032 35.9688 22.8125 35.9688V33.9688ZM22.1719 33.3281C22.1719 32.9642 22.4349 32.6875 22.8125 32.6875V30.6875C21.2761 30.6875 20.1719 31.9147 20.1719 33.3281H22.1719ZM22.8125 32.6875H25V30.6875H22.8125V32.6875ZM25 32.6875C25.3364 32.6875 25.6406 32.9917 25.6406 33.3281H27.6406C27.6406 31.8872 26.441 30.6875 25 30.6875V32.6875ZM25.6406 33.3281V39.3438H27.6406V33.3281H25.6406ZM26.6406 40.3438H27.7344V38.3438H26.6406V40.3438ZM27.7344 40.3438C28.0708 40.3438 28.375 40.648 28.375 40.9844H30.375C30.375 39.5434 29.1753 38.3438 27.7344 38.3438V40.3438ZM28.375 40.9844C28.375 41.362 28.0983 41.625 27.7344 41.625V43.625C29.1478 43.625 30.375 42.5208 30.375 40.9844H28.375Z" fill="#F5F3F8"/>
</svg>
