<svg class="footer-svg" width="50" height="68" viewBox="0 0 50 68" fill="none" aria-hidden="true">
<path class="footer-svg__path" d="M39.4238 32.918L39.7925 33.8475L40.1985 33.6865L40.3563 33.2793L39.4238 32.918ZM31.4941 36.0625L31.1255 35.1329L31.4941 37.0625V36.0625ZM37.9199 36.0625L38.8023 36.5331L39.5866 35.0625H37.9199V36.0625ZM36.1426 39.0703L36.5091 40.0007L36.7844 39.8923L36.9563 39.6516L36.1426 39.0703ZM27.1191 42.625L26.7526 41.6946L27.1191 43.625V42.625ZM32.9297 42.625L33.598 43.3689L35.5393 41.625H32.9297V42.625ZM14.8828 46.248L15.11 45.2742L14.5687 45.1479L14.1757 45.5409L14.8828 46.248ZM7.91016 50.8965L8.65345 50.2275L8.61824 50.1884L8.57912 50.1532L7.91016 50.8965ZM7.91016 48.6406L8.57912 49.3839L8.5994 49.3657L8.61866 49.3463L7.91016 48.6406ZM25.2051 31.2773L25.9136 31.9831L25.9449 31.9516L25.9733 31.9175L25.2051 31.2773ZM23.5645 29.8418L22.9137 29.0825L22.8834 29.1085L22.8553 29.1368L23.5645 29.8418ZM12.0801 41.3945L11.0897 41.5328L11.3684 43.5289L12.7893 42.0995L12.0801 41.3945ZM40.1758 16.4434L40.247 17.4408L40.2638 17.4396L40.2805 17.4379L40.1758 16.4434ZM42.4316 18.6992L41.4371 18.5945L41.4351 18.6136L41.4339 18.6327L42.4316 18.6992ZM39.0552 31.9884L31.1255 35.1329L31.8628 36.9921L39.7925 33.8475L39.0552 31.9884ZM31.4941 37.0625H37.9199V35.0625H31.4941V37.0625ZM37.0376 35.5919C36.4858 36.6265 35.9683 37.5938 35.3288 38.4891L36.9563 39.6516C37.684 38.6327 38.2603 37.5493 38.8023 36.5331L37.0376 35.5919ZM35.7761 38.1399L26.7526 41.6946L27.4857 43.5554L36.5091 40.0007L35.7761 38.1399ZM27.1191 43.625H32.9297V41.625H27.1191V43.625ZM32.2614 41.8811C28.4967 45.263 23.0299 47.1222 15.11 45.2742L14.6556 47.2219C23.142 49.2021 29.2963 47.2331 33.598 43.3689L32.2614 41.8811ZM14.1757 45.5409L9.52727 50.1894L10.9415 51.6036L15.5899 46.9552L14.1757 45.5409ZM9.52727 50.1894C9.21234 50.5043 8.85177 50.4479 8.65345 50.2275L7.16686 51.5654C8.19901 52.7123 9.88922 52.6558 10.9415 51.6036L9.52727 50.1894ZM8.57912 50.1532C8.33691 49.9352 8.33691 49.6019 8.57912 49.3839L7.24119 47.8973C6.11622 48.9098 6.11622 50.6273 7.24119 51.6398L8.57912 50.1532ZM8.61866 49.3463L25.9136 31.9831L24.4966 30.5716L7.20166 47.9349L8.61866 49.3463ZM25.9733 31.9175C26.6322 31.1268 26.6349 29.9258 25.8438 29.1347L24.4296 30.5489C24.4428 30.5621 24.4478 30.5716 24.4498 30.5763C24.452 30.5816 24.4532 30.587 24.4534 30.5929C24.4539 30.6055 24.4497 30.6218 24.4369 30.6372L25.9733 31.9175ZM25.8438 29.1347C25.0159 28.3068 23.7349 28.3786 22.9137 29.0825L24.2152 30.6011C24.2753 30.5496 24.3357 30.5342 24.3762 30.5342C24.4151 30.5342 24.4271 30.5464 24.4296 30.5489L25.8438 29.1347ZM22.8553 29.1368L11.3709 40.6895L12.7893 42.0995L24.2737 30.5468L22.8553 29.1368ZM13.0705 41.2563C12.3629 36.1882 13.2447 32.2602 15.019 29.1908C16.8011 26.108 19.5296 23.8129 22.6363 22.1048C28.8762 18.6741 36.4574 17.7115 40.247 17.4408L40.1045 15.4459C36.2379 15.7221 28.3016 16.7077 21.6728 20.3522C18.3452 22.1817 15.3015 24.706 13.2875 28.1899C11.2658 31.6873 10.3275 36.0735 11.0897 41.5328L13.0705 41.2563ZM40.2805 17.4379C40.9467 17.3677 41.5073 17.9283 41.4371 18.5945L43.4261 18.8039C43.6295 16.8725 42.0025 15.2455 40.0711 15.4489L40.2805 17.4379ZM41.4339 18.6327C41.2321 21.6598 40.559 27.2209 38.4914 32.5566L40.3563 33.2793C42.527 27.6775 43.2211 21.891 43.4294 18.7657L41.4339 18.6327Z" fill="#F5F3F8"/>
</svg>
