<svg class="svg_icon" width="107" height="94" fill="none" xmlns="http://www.w3.org/2000/svg"><path class="svg_icon__animated_path" d="m74.406 78.238-32.835-4.606-8.919-63.458 32.836 4.606 8.918 63.458Zm-3.703-64.526 19.7-11.32c2.327-1.332 5.54.06 5.933 2.855l7.741 55.074c.231 1.644-.548 3.262-2.122 3.987L79.621 77.17 70.703 13.71ZM4.94 24.127l22.498-12.885L36.356 74.7 16.491 86.042c-2.327 1.333-5.376-.082-5.769-2.877L2.982 28.09c-.23-1.644.383-3.24 1.958-3.964Z" fill="#80D7D8"/><path d="m88.666 15.822-.64.768.068.057.076.044.496-.869Zm-.635 47.989.356.934.026-.01.024-.01-.406-.914Zm-21.328 8.125L66.347 71l-.008.003-.007.003.371.928Zm-2.031 0 .371-.929-.028-.011-.028-.01-.315.95Zm-23.36-7.745.315-.949-.338-.112-.333.127.356.934ZM21 71.936 20.644 71l-.02.007-.018.008.394.92Zm-2.793-.381.64-.769-.067-.056-.077-.044-.496.869Zm.635-47.989-.356-.934-.026.01-.024.01.406.914Zm21.328-8.125.356.935.008-.003.007-.003-.371-.929Zm2.031 0-.371.929.028.011.029.01.314-.95Zm23.36 7.745-.315.949.338.112.333-.127-.356-.934Zm20.312-7.745.356.935.02-.007.018-.008-.394-.92ZM23.031 64.7h-1v1.454l1.358-.52-.358-.934Zm15.235-5.84.358.934.642-.246v-.688h-1Zm0-36.181h1v-1.455l-1.358.521.358.934Zm-15.235 5.84-.358-.934-.642.246v.688h1Zm39.61.127h1v-.721l-.684-.228-.316.948ZM44.359 22.55l.317-.949-1.317-.439v1.388h1Zm0 36.181h-1v.721l.684.228.316-.949Zm18.282 6.094-.317.949 1.317.439v-1.388h-1Zm6.093-.127h-1v1.454l1.358-.52-.358-.934Zm15.235-5.84.358.934.642-.246v-.688h-1Zm0-36.181h1v-1.455l-1.358.521.358.934Zm-15.235 5.84-.358-.934-.642.246v.688h1ZM88.17 16.69c.552.316.892.985.892 1.544h2c0-1.218-.675-2.58-1.9-3.28l-.992 1.736Zm.892 1.544v42.657h2V18.234h-2Zm0 42.657c0 .802-.585 1.627-1.437 2.006l.812 1.827c1.434-.637 2.626-2.097 2.626-3.833h-2Zm-1.387 1.985-21.328 8.125.712 1.869 21.328-8.125-.712-1.869Zm-21.343 8.131a1.805 1.805 0 0 1-1.289 0l-.743 1.857c.874.35 1.901.35 2.775 0l-.743-1.857Zm-1.345-.02-23.36-7.745-.63 1.899 23.36 7.744.63-1.899Zm-24.03-7.73-20.313 7.744.712 1.869 20.313-7.744-.713-1.869Zm-20.35 7.76c-.568.243-1.307.147-1.76-.23l-1.28 1.536c1.07.892 2.617 1.05 3.827.532l-.788-1.839Zm-1.904-.33c-.465-.266-.765-.863-.765-1.671h-2c0 1.223.46 2.657 1.773 3.407l.992-1.737Zm-.765-1.671V26.359h-2v42.657h2Zm0-42.657c0-.82.477-1.509 1.31-1.879l-.812-1.827c-1.453.645-2.498 1.988-2.498 3.706h2Zm1.26-1.858 21.328-8.125-.712-1.87-21.328 8.126.712 1.869ZM40.54 16.37a1.804 1.804 0 0 1 1.289 0l.743-1.857c-.874-.35-1.901-.35-2.775 0l.743 1.857Zm1.346.02 23.359 7.745.63-1.899-23.36-7.744-.63 1.899Zm24.03 7.73 20.312-7.744-.712-1.869-20.313 7.744.713 1.869Zm20.35-7.76c.567-.242 1.306-.147 1.759.23l1.28-1.536c-1.07-.892-2.617-1.05-3.827-.532l.788 1.839ZM23.389 65.634l15.235-5.84-.716-1.867-15.235 5.84.716 1.867Zm15.877-6.774V22.678h-2v36.181h2Zm-1.358-37.115-15.235 5.84.716 1.867 15.235-5.84-.716-1.867ZM22.03 28.518v36.181h2V28.518h-2Zm40.926-.822-18.281-6.094-.633 1.898 18.281 6.093.633-1.897ZM43.359 22.55v36.181h2V22.551h-2Zm.684 37.13 18.281 6.094.633-1.898-18.281-6.093-.633 1.897Zm19.598 5.145V28.645h-2v36.181h2Zm5.451.807 15.235-5.84-.716-1.867-15.235 5.84.716 1.867Zm15.877-6.774V22.678h-2v36.181h2ZM83.61 21.744l-15.235 5.84.716 1.867 15.235-5.84-.716-1.867Zm-15.877 6.774v36.181h2V28.518h-2Z" fill="#262626"/></svg>