<svg xmlns="http://www.w3.org/2000/svg" xml:space="preserve" viewBox="0 0 460 460" width="22" height="22" aria-hidden="true">
  <path fill="#fff" d="M230 0C102.975 0 0 102.975 0 230s102.975 230 230 230 230-102.974 230-230S357.025 0 230 0zm103.333 246.667H246.667v86.666c0 9.202-7.465 16.667-16.667 16.667s-16.667-7.465-16.667-16.667v-86.666h-86.666c-9.202 0-16.667-7.465-16.667-16.667s7.465-16.667 16.667-16.667h86.666v-86.666c0-9.202 7.465-16.667 16.667-16.667s16.667 7.465 16.667 16.667v86.666h86.666c9.202 0 16.667 7.465 16.667 16.667s-7.465 16.667-16.667 16.667z"/>
</svg>
