<svg class="svg_icon" width="114" height="100" fill="none" xmlns="http://www.w3.org/2000/svg" aria-hidden="true"><path class="svg_icon__animated_path" d="M20.778 19.995c-.601-4.274 2.343-8.376 6.782-9 4.274-.601 8.4 2.508 9 6.782.624 4.439-2.508 8.4-6.782 9-4.439.624-8.377-2.343-9-6.782Zm12.036 76.097c-2.96.416-5.585-1.563-6-4.522L21.66 54.91l-3.659 8.56c-1.133 2.674-4.305 3.958-6.979 2.825-2.674-1.133-3.958-4.305-2.825-6.98l7.294-17.286c2.29-5.184 6.97-8.859 12.56-9.645l23.508-3.303-1.848-13.152c-.6-4.275 2.343-8.377 6.782-9L93.32 1.752c4.274-.601 8.399 2.508 9 6.782l5.176 36.826c.623 4.438-2.508 8.399-6.783 9l-36.825 5.175c-4.439.624-8.377-2.343-9-6.782l-1.11-7.891L64.3 43.384l.74 5.261 31.564-4.436-4.436-31.565-31.565 4.436 1.48 10.522 2.63-.37c2.794-.393 5.607 1.727 6 4.521.416 2.96-1.727 5.608-4.522 6l-22.358 3.143 6.654 47.347c.416 2.96-1.727 5.608-4.521 6-2.96.416-5.585-1.562-6-4.521l-2.958-21.043-2.63.37 2.957 21.042c.416 2.96-1.727 5.608-4.521 6Z" fill="#80D7D8"/><path class="svg_icon__original_path" d="M29.11 49.752h1v-3.589l-1.857 3.072.856.517Zm-3.682 6.094-.856-.517-.002.002.858.515Zm-6.983-4.19.858.515v-.002l-.858-.513Zm7.364-12.314-.85-.528-.004.008-.005.007.859.513ZM54.5 33.375v1h1v-1h-1Zm0 12.188v-1h-1v1h1Zm8.125 0h1v-1h-1v1Zm0 4.062h-1v1h1v-1Zm24.375 0v1h1v-1h-1Zm0-24.375h1v-1h-1v1Zm-24.375 0v-1h-1v1h1Zm0 8.125h-1v1h1v-1ZM47.391 41.5v-1h-1v1h1Zm-8.125 20.313h1v-1h-1v1Zm-2.032 0v-1h-1v1h1Zm-4.078-38.594c0-2.762 2.232-5.094 5.094-5.094v-2c-3.993 0-7.094 3.254-7.094 7.094h2Zm5.094-5.094c2.748 0 5.094 2.345 5.094 5.094h2c0-3.853-3.24-7.094-7.094-7.094v2Zm5.094 5.094c0 2.862-2.332 5.093-5.094 5.093v2c3.84 0 7.094-3.1 7.094-7.093h-2Zm-5.094 5.093c-2.876 0-5.094-2.218-5.094-5.093h-2c0 3.98 3.114 7.093 7.094 7.093v-2Zm-5.078 52.813c-1.733 0-3.063-1.33-3.063-3.063h-2c0 2.838 2.225 5.063 5.063 5.063v-2Zm-3.063-3.063v-28.31h-2v28.31h2Zm-1.856-28.827-3.681 6.094 1.712 1.034 3.681-6.094-1.712-1.034ZM24.57 55.33c-.858 1.43-2.783 1.912-4.214 1.054L19.327 58.1c2.378 1.426 5.531.638 6.958-1.74l-1.715-1.029Zm-4.214 1.054c-1.43-.859-1.912-2.783-1.053-4.214l-1.715-1.03c-1.427 2.379-.639 5.532 1.74 6.959l1.028-1.715Zm-1.052-4.216 7.363-12.314-1.717-1.026-7.363 12.314 1.717 1.026Zm7.354-12.3c2.111-3.401 5.733-5.494 9.688-5.494v-2c-4.678 0-8.928 2.478-11.387 6.44l1.7 1.054Zm9.688-5.494H54.5v-2H36.346v2Zm19.154-1V23.219h-2v10.156h2Zm0-10.156c0-2.762 2.232-5.094 5.094-5.094v-2c-3.994 0-7.094 3.254-7.094 7.094h2Zm5.094-5.094H89.03v-2H60.594v2Zm28.437 0c2.749 0 5.094 2.345 5.094 5.094h2c0-3.853-3.24-7.094-7.094-7.094v2Zm5.094 5.094v28.437h2V23.22h-2Zm0 28.437c0 2.862-2.332 5.094-5.094 5.094v2c3.84 0 7.094-3.1 7.094-7.094h-2Zm-5.094 5.094H60.594v2H89.03v-2Zm-28.437 0c-2.876 0-5.094-2.218-5.094-5.094h-2c0 3.98 3.114 7.094 7.094 7.094v-2ZM55.5 51.656v-6.093h-2v6.093h2Zm-1-5.093h8.125v-2H54.5v2Zm7.125-1v4.062h2v-4.063h-2Zm1 5.062H87v-2H62.625v2Zm25.375-1V25.25h-2v24.375h2ZM87 24.25H62.625v2H87v-2Zm-25.375 1v8.125h2V25.25h-2Zm1 9.125h2.031v-2h-2.031v2Zm2.031 0c1.606 0 3.063 1.457 3.063 3.063h2c0-2.711-2.352-5.063-5.063-5.063v2Zm3.063 3.063c0 1.712-1.436 3.062-3.063 3.062v2c2.69 0 5.063-2.205 5.063-5.063h-2ZM64.656 40.5H47.391v2h17.265v-2Zm-18.265 1v36.563h2V41.5h-2Zm0 36.563c0 1.712-1.437 3.062-3.063 3.062v2c2.69 0 5.063-2.205 5.063-5.063h-2Zm-3.063 3.062c-1.733 0-3.062-1.33-3.062-3.063h-2c0 2.838 2.225 5.063 5.062 5.063v-2Zm-3.062-3.063v-16.25h-2v16.25h2Zm-1-17.25h-2.032v2h2.032v-2Zm-3.032 1v16.25h2v-16.25h-2Zm0 16.25c0 1.713-1.436 3.063-3.062 3.063v2c2.69 0 5.062-2.205 5.062-5.063h-2Z" fill="#262626"/></svg>
