<svg class="svg_icon" width="87" height="98" fill="none" xmlns="http://www.w3.org/2000/svg"><path class="svg_icon__animated_path" d="M40.553 30.602c.793 2.068 1.093 4.205 1.065 6.389-.216 2.042-.925 4.153-1.986 6.147-1.932 2.953-4.637 5.178-8.138 6.508l5.013 35.675c.255 1.808-.172 3.545-1.138 5.022-1.154 1.335-2.705 2.224-4.513 2.478-1.644.231-3.38-.196-4.858-1.162-1.335-1.153-2.389-2.681-2.643-4.49l-5.013-35.675c-3.545-.172-6.946-1.706-9.453-4.036a14.604 14.604 0 0 1-3.603-5.361c-.794-2.068-.93-4.228-.737-6.435l1.79-23.051c.072-.681.331-1.22.755-1.783.611-.421 1.081-.655 1.762-.583.658-.092 1.362.144 1.924.568.398.447.82 1.058.889 1.551l3.327 23.674 2.795-.393-.625-24.724c.095-.516.19-1.032.637-1.43.283-.375.753-.61 1.246-.678.658-.093 1.174.002 1.549.285.54.26.773.73 1.007 1.2l6.214 23.938 2.795-.393-3.327-23.674c-.07-.493.167-1.197.426-1.736.424-.562 1.036-.984 1.693-1.076.635-.257 1.151-.162 1.855.075.562.423.96.87 1.217 1.505l8.075 21.665ZM85.334 78.46c.254 1.808-.337 3.567-1.303 5.044-1.153 1.336-2.705 2.225-4.349 2.456-1.808.254-3.544-.173-5.021-1.139-1.336-1.153-2.225-2.705-2.479-4.513L69.41 60.579l-2.795.393c-1.48.208-2.818.228-4.203-.08-1.407-.473-2.65-.969-3.776-1.817-1.125-.847-1.967-2.07-2.786-3.129-.678-1.245-1.05-2.702-1.236-4.017l-2.633-18.742c-.691-6.106.286-12.278 2.88-17.672 2.737-5.582 6.973-10.033 12.403-13.143.612-.422 1.575-.725 2.42-.676.822-.115 1.69.098 2.417.499.892.377 1.477.966 2.086 1.718.421.612.701 1.41.981 2.21l10.166 72.336Z" fill="#80D7D8"/><path class="svg_icon__original_path" d="m43.12 34.041-.977.215.002.01.974-.225Zm.126 4.951.97.243.011-.045.008-.046-.989-.152Zm-2.158 4.444.752.658.03-.034.027-.036-.81-.589Zm-6.856 4.062-.221-.975-.779.177v.798h1Zm-1.396 31.23.658.753.05-.044.045-.05-.753-.659Zm-7.236 0-.753.659.044.05.05.044.659-.752Zm-1.524-31.23h1v-.828l-.813-.154-.187.982Zm-6.728-4.063-.781.625.005.006.776-.63Zm-2.032-9.394.975.225.002-.01-.977-.215Zm3.809-17.266-.97-.242-.004.013-.003.014.977.215Zm.762-1.27-.448-.894-.145.073-.114.115.707.707Zm1.396-.253-.242.97.12.03h.122v-1Zm1.397.635.832-.555-.055-.082-.07-.07-.707.707Zm.508 19.55h-1v1h1v-1Zm2.158 0v1h.891l.102-.885-.993-.114Zm2.158-18.789-.949-.316-.033.099-.012.103.994.114Zm.635-1.015.554.832.083-.055.07-.07-.707-.707Zm2.158 0-.707.707.07.07.082.055.555-.832Zm.635 1.015.993-.114-.012-.103-.033-.099-.948.316Zm2.158 18.79-.994.114.102.886h.892v-1Zm2.158 0v1h1v-1h-1Zm.508-19.551-.707-.707-.07.07-.055.082.832.555Zm1.396-.635v1h.123l.12-.03-.243-.97Zm1.397.254.707-.707-.115-.115-.145-.073-.447.895Zm.761 1.27.977-.216-.003-.014-.003-.013-.97.242Zm31.104 61.952.659.753.05-.044.044-.05-.753-.659Zm-7.236 0-.753.659.044.05.05.044.659-.752ZM61.78 59.813h1v-1h-1v1Zm-5.332-.508-.447.894.047.024.05.018.35-.936Zm-4.443-4.444-.937.352.029.075.04.07.868-.497Zm-.508-17.646-1-.027v.027h1Zm4.063-13.076-.828-.561-.005.006.832.555Zm10.79-8.633.372.928.039-.015.037-.019-.447-.894Zm1.905-.254-.196.98.097.02h.099v-1Zm1.777.635-.6.8.041.03.045.027.514-.857Zm1.397 1.523.894-.447-.017-.034-.02-.033-.857.514Zm.507 1.777h1v-.099l-.019-.097-.98.197ZM42.145 34.267c.347 1.504.351 3.024.113 4.574l1.976.304c.27-1.75.274-3.531-.14-5.328l-1.95.45Zm.131 4.484c-.344 1.376-1.042 2.784-1.997 4.097l1.618 1.177c1.075-1.48 1.901-3.118 2.32-4.79l-1.941-.484Zm-1.94 4.027c-1.64 1.873-3.74 3.158-6.325 3.746l.443 1.95c3-.682 5.47-2.19 7.386-4.379l-1.505-1.317Zm-7.104 4.721v27.549h2V47.498h-2Zm0 27.549a4.531 4.531 0 0 1-1.149 3.023l1.506 1.317a6.53 6.53 0 0 0 1.643-4.34h-2Zm-1.055 2.929a4.53 4.53 0 0 1-3.023 1.149v2a6.53 6.53 0 0 0 4.34-1.644l-1.317-1.505Zm-3.023 1.149c-1.004 0-2.044-.404-2.896-1.15l-1.317 1.506c1.18 1.032 2.678 1.644 4.213 1.644v-2Zm-2.802-1.055c-.78-.892-1.276-1.937-1.276-3.023h-2c0 1.707.775 3.201 1.771 4.34l1.505-1.317Zm-1.276-3.023V47.498h-2v27.549h2Zm-.813-28.531c-2.42-.461-4.628-1.851-6.14-3.711l-1.552 1.261c1.79 2.203 4.406 3.86 7.318 4.414l.374-1.964Zm-6.135-3.705a10.17 10.17 0 0 1-1.964-4.044l-1.949.45a12.166 12.166 0 0 0 2.352 4.843l1.561-1.25Zm-1.964-4.044c-.336-1.455-.233-2.943.127-4.501l-1.949-.45c-.402 1.743-.553 3.556-.127 5.401l1.949-.45Zm.129-4.51 3.809-17.266-1.954-.431-3.808 17.266 1.953.43Zm3.802-17.24c.072-.285.208-.513.499-.804l-1.414-1.414c-.471.47-.843 1.005-1.025 1.734l1.94.485Zm.239-.617c.234-.117.365-.166.46-.186a.497.497 0 0 1 .247.008l.485-1.94c-.86-.215-1.512.042-2.087.33l.895 1.788Zm.95-.148c.182 0 .448.101.689.342l1.414-1.414c-.521-.522-1.27-.928-2.104-.928v2Zm.564.19c.101.152.196.32.262.473.072.17.078.247.078.241h2c0-.387-.122-.754-.24-1.028a5.061 5.061 0 0 0-.436-.796l-1.664 1.11Zm.34.714v18.282h2V17.155h-2Zm1 19.282h2.158v-2h-2.159v2Zm3.151-.886 2.158-18.79-1.987-.228-2.158 18.79 1.987.228Zm2.114-18.587c.068-.206.106-.31.151-.393a.264.264 0 0 1 .09-.107l-1.11-1.664c-.705.47-.915 1.189-1.029 1.531l1.898.633Zm.393-.625c.024-.024.126-.088.308-.088v-2c-.579 0-1.239.19-1.722.674l1.414 1.414Zm.308-.088c.354 0 .436.088.436.088l1.414-1.414c-.508-.508-1.188-.674-1.85-.674v2Zm.588.213c.03.02.055.044.09.107.045.083.082.187.151.393l1.897-.633c-.114-.342-.324-1.062-1.028-1.531l-1.11 1.664Zm.196.298 2.158 18.789 1.987-.229-2.158-18.789-1.987.229Zm3.152 19.674h2.158v-2H33.09v2Zm3.158-1v-18.28h-2v18.28h2Zm0-18.28c0 .005.005-.072.078-.242.066-.153.16-.321.262-.474l-1.664-1.109a5.06 5.06 0 0 0-.436.796c-.118.274-.24.641-.24 1.028h2Zm.215-.563c.24-.24.507-.342.69-.342v-2c-.834 0-1.583.406-2.104.928l1.414 1.414Zm.932-.372a.497.497 0 0 1 .246-.008c.095.02.226.07.46.186l.895-1.789c-.574-.287-1.226-.544-2.086-.33l.485 1.941Zm.447-.009c.29.29.427.519.498.805l1.94-.485c-.182-.73-.553-1.263-1.024-1.734l-1.414 1.414Zm.492.778 3.809 17.265 1.953-.43-3.809-17.266-1.953.43Zm32.603 58.056c0 1.086-.495 2.13-1.275 3.023l1.505 1.317c.996-1.139 1.77-2.633 1.77-4.34h-2Zm-1.181 2.929c-.852.745-1.892 1.149-2.897 1.149v2c1.535 0 3.034-.612 4.214-1.644l-1.317-1.505Zm-2.897 1.149a4.531 4.531 0 0 1-3.023-1.15l-1.317 1.506a6.531 6.531 0 0 0 4.34 1.644v-2ZM63.93 78.07a4.531 4.531 0 0 1-1.149-3.023h-2c0 1.65.603 3.15 1.644 4.34l1.505-1.317Zm-1.149-3.023V59.813h-2v15.234h2Zm-1-16.234h-2.158v2h2.158v-2Zm-2.158 0c-1.065 0-1.953-.119-2.823-.445l-.702 1.873c1.162.436 2.305.572 3.525.572v-2Zm-2.727-.403c-.994-.497-1.762-.946-2.406-1.59l-1.414 1.414c.88.88 1.889 1.447 2.926 1.965l.894-1.789Zm-2.406-1.59c-.64-.64-1.064-1.49-1.616-2.455l-1.736.992c.464.813 1.055 1.994 1.938 2.877l1.414-1.414Zm-1.548-2.31c-.324-.865-.444-1.877-.444-2.822h-2c0 1.086.134 2.358.572 3.524l1.872-.702Zm-.444-2.822V37.215h-2v14.472h2Zm0-14.446c.122-4.52 1.466-8.905 3.895-12.549l-1.665-1.109c-2.649 3.974-4.098 8.729-4.23 13.604l2 .054Zm3.89-12.542c2.551-3.766 6.072-6.56 10.335-8.266l-.743-1.857c-4.623 1.85-8.466 4.895-11.247 9l1.656 1.122Zm10.41-8.3c.32-.16.857-.248 1.262-.167l.392-1.962a4.187 4.187 0 0 0-2.548.34l.895 1.79Zm1.458-.148c.376 0 .806.156 1.177.435l1.2-1.6c-.644-.483-1.484-.835-2.377-.835v2Zm1.263.492c.426.256.703.598 1.053 1.18l1.715-1.028c-.412-.687-.896-1.36-1.74-1.867l-1.028 1.715Zm1.016 1.113c.183.365.288.856.422 1.527l1.961-.393c-.12-.599-.268-1.377-.594-2.028l-1.789.894Zm.403 1.33v55.86h2v-55.86h-2Z" fill="#262626"/></svg>
