<svg class="svg_icon" width="95" height="93" fill="none" xmlns="http://www.w3.org/2000/svg"><path class="svg_icon__animated_path" d="M4.615 15.791c-.324-2.301 1.254-4.2 3.39-4.5l5.262-.739c2.301-.323 4.176 1.09 4.5 3.391l2.75 19.564 2.63-.37c2.301-.323 4.2 1.254 4.5 3.391.323 2.302-1.09 4.177-3.391 4.5l-13.152 1.849c-2.137.3-4.177-1.09-4.5-3.391-.3-2.138 1.254-4.2 3.39-4.5l2.631-.37-2.195-15.618-1.315.185c-2.137.3-4.2-1.254-4.5-3.392ZM21.557 61.19c-1.171-1.177-3.121-.735-3.923.719l-1.461 2.72c-1.061 1.993-3.458 2.833-5.287 1.749-1.993-1.061-2.833-3.458-1.749-5.287l1.439-2.884c3.183-5.98 11.005-7.582 16.16-3.11 4.171 3.438 4.862 9.544 1.8 13.997l-4.9 6.892 5.59-.786c2.137-.3 4.2 1.254 4.5 3.391.324 2.302-1.254 4.2-3.391 4.5l-14.467 2.034c-1.644.23-3.24-.383-3.94-1.793-.866-1.388-.933-3.055.056-4.367L22.02 64.478c.683-1.102.499-2.417-.462-3.288Zm58.35-54.807c2.795-.392 5.608 1.727 6 4.522.416 2.959-1.726 5.607-4.52 6L39.3 22.82c-2.96.416-5.585-1.562-6-4.522-.393-2.794 1.562-5.584 4.521-6l42.086-5.915Zm3.697 26.304c2.795-.392 5.608 1.727 6 4.522.416 2.959-1.726 5.607-4.521 6l-42.087 5.915c-2.959.416-5.584-1.562-6-4.522-.393-2.794 1.563-5.584 4.522-6l42.086-5.915Zm3.697 26.304c2.795-.392 5.607 1.727 6 4.522.416 2.959-1.727 5.607-4.521 6l-42.087 5.915c-2.959.416-5.584-1.562-6-4.522-.393-2.794 1.562-5.584 4.522-6L87.3 58.991Z" fill="#80D7D8"/><path d="M28.076 32.469h-1v1h1v-1Zm-6.094 0v1h1v-1h-1Zm0-12.06h1v-1h-1v1Zm3.936 33.134-.8.6.015.02.017.02.768-.64Zm-3.047.127-.8-.6-.006.009.806.59Zm-1.396 1.904-.807-.591-.002.003.809.588Zm-4.19.762.625-.78-.018-.015-.019-.014-.588.809Zm-.762-4.19.781.625.023-.028.02-.03-.824-.566Zm1.397-2.03-.809-.589-.008.01-.007.012.824.566Zm12.568-.636-.754.657.008.01.01.01.736-.676Zm-.127 10.792.727.687.005-.006.006-.006-.738-.675Zm-4.443 4.697-.726-.687-1.596 1.687h2.322v-1Zm-9.648 4.316.948-.316-.015-.046-.02-.044-.913.406Zm.507-3.3.707.707.015-.015.013-.014-.735-.679Zm9.141-9.903.735.678.017-.018.016-.02-.768-.64Zm-6.998-38.72c0-1.199.921-2.047 2.047-2.047v-2c-2.175 0-4.047 1.69-4.047 4.046h2Zm2.047-2.047h4.062v-2h-4.062v2Zm4.062 0c1.225 0 2.047.821 2.047 2.046h2c0-2.33-1.717-4.046-4.047-4.046v2Zm2.047 2.046V32.47h2V17.36h-2Zm1 16.108h2.031v-2h-2.03v2Zm2.031 0c1.198 0 2.047.921 2.047 2.047h2c0-2.175-1.69-4.047-4.047-4.047v2Zm2.047 2.047c0 1.225-.822 2.047-2.047 2.047v2c2.33 0 4.047-1.718 4.047-4.047h-2Zm-2.047 2.047H19.951v2h10.156v-2Zm-10.156 0c-1.125 0-2.047-.85-2.047-2.047h-2c0 2.356 1.872 4.047 4.047 4.047v-2Zm-2.047-2.047c0-1.099.95-2.047 2.047-2.047v-2c-2.203 0-4.047 1.844-4.047 4.047h2Zm2.047-2.047h2.031v-2h-2.03v2Zm3.031-1v-12.06h-2v12.06h2Zm-1-13.06h-1.015v2h1.015v-2Zm-1.015 0c-1.098 0-2.047-.95-2.047-2.048h-2c0 2.203 1.844 4.047 4.047 4.047v-2Zm5.751 33.534c-1.234-1.645-3.56-1.321-4.647.127l1.6 1.2c.437-.583 1.158-.513 1.447-.127l1.6-1.2Zm-4.653.136-1.397 1.904 1.613 1.183 1.396-1.905-1.612-1.182Zm-1.4 1.907c-.74 1.018-2.007 1.168-2.755.57l-1.25 1.56c1.791 1.434 4.332.821 5.623-.954l-1.617-1.176Zm-2.792.541c-1.018-.74-1.167-2.008-.569-2.756l-1.561-1.25c-1.433 1.792-.821 4.333.954 5.624l1.176-1.618Zm-.526-2.814 1.397-2.031-1.648-1.133-1.397 2.031 1.649 1.133Zm1.382-2.01c2.682-3.688 8.014-4 11.005-.566l1.508-1.313c-3.864-4.437-10.72-3.988-14.13.703l1.617 1.176Zm11.022-.547c2.423 2.643 2.336 6.753-.127 9.44l1.475 1.351c3.123-3.407 3.29-8.691.126-12.142l-1.474 1.351Zm-.116 9.428-4.444 4.698 1.453 1.374 4.444-4.697-1.453-1.375Zm-3.717 6.385h4.316v-2h-4.316v2Zm4.316 0c1.098 0 2.047.949 2.047 2.047h2c0-2.203-1.844-4.047-4.047-4.047v2Zm2.047 2.047c0 1.198-.921 2.046-2.047 2.046v2c2.175 0 4.047-1.69 4.047-4.046h-2Zm-2.047 2.046H19.062v2h11.172v-2Zm-11.172 0c-.968 0-1.636-.47-1.844-1.093l-1.897.632c.554 1.662 2.17 2.462 3.742 2.462v-2Zm-1.879-1.183c-.37-.834-.244-1.642.302-2.188l-1.415-1.414c-1.231 1.232-1.36 2.963-.714 4.414l1.827-.812Zm.33-2.216 9.14-9.903-1.47-1.356-9.14 9.902 1.47 1.357Zm9.173-9.94c.944-1.133.944-2.688 0-3.82l-1.536 1.28c.326.391.326.868 0 1.259l1.536 1.28ZM75.938 19.25c1.605 0 3.062 1.457 3.062 3.063h2c0-2.711-2.352-5.063-5.063-5.063v2ZM79 22.313c0 1.712-1.436 3.062-3.063 3.062v2c2.69 0 5.063-2.205 5.063-5.063h-2Zm-3.063 3.062h-32.5v2h32.5v-2Zm-32.5 0c-1.732 0-3.062-1.33-3.062-3.063h-2c0 2.838 2.225 5.063 5.063 5.063v-2Zm-3.062-3.063c0-1.626 1.35-3.062 3.063-3.062v-2c-2.858 0-5.063 2.372-5.063 5.063h2Zm3.063-3.062h32.5v-2h-32.5v2Zm32.5 20.313c1.605 0 3.062 1.456 3.062 3.062h2c0-2.71-2.352-5.063-5.063-5.063v2ZM79 42.624c0 1.713-1.436 3.063-3.063 3.063v2c2.69 0 5.063-2.205 5.063-5.063h-2Zm-3.063 3.063h-32.5v2h32.5v-2Zm-32.5 0c-1.732 0-3.062-1.33-3.062-3.063h-2c0 2.837 2.225 5.063 5.063 5.063v-2Zm-3.062-3.063c0-1.626 1.35-3.063 3.063-3.063v-2c-2.858 0-5.063 2.373-5.063 5.063h2Zm3.063-3.063h32.5v-2h-32.5v2Zm32.5 20.313c1.605 0 3.062 1.457 3.062 3.063h2c0-2.711-2.352-5.063-5.063-5.063v2ZM79 62.938C79 64.65 77.564 66 75.937 66v2C78.627 68 81 65.795 81 62.937h-2ZM75.937 66h-32.5v2h32.5v-2Zm-32.5 0c-1.732 0-3.062-1.33-3.062-3.063h-2c0 2.838 2.225 5.063 5.063 5.063v-2Zm-3.062-3.063c0-1.626 1.35-3.062 3.063-3.062v-2c-2.858 0-5.063 2.372-5.063 5.063h2Zm3.063-3.062h32.5v-2h-32.5v2Z" fill="#262626"/></svg>