<svg fill="none" height="57" viewBox="0 0 47 57" width="47" xmlns="http://www.w3.org/2000/svg"><path d="m37.0336 2.04019s-4.179-1.261773-5.9747.00003c-2.6434 1.85736 1.1677.81457-1.681 4.40823-2.0725 2.60479-2.0436 5.32445-.7129 8.85805 10.2013-.8582 12.2776 4.8487 12.2776 4.8487l-1.5796-6.6237 2.8887-4.27753c-.3811-4.73156-4.3957-7.03993-5.2181-7.21378z" fill="#fff"/><g fill="#000"><path d="m29.9582 16.7048.8286-1.4312c-1.5018-1.1662-2.5376-2.9685-2.5376-5.0888 0-3.49854 2.7448-6.30798 6.1628-6.30798.8804 0 1.6572.15903 2.3822.47708.3626-.53009.7251-1.16619 1.0876-1.96132-1.5019-1.00715-3.3144-1.537233-5.2306-1.537233-5.3859 0-9.7879 4.452693-9.7879 10.018553 0 5.5129 4.3502 10.0186 9.7879 10.0186 1.6054 0 2.3305-.4241 2.5376-1.1132z"/><path d="m42.2309 9.28369-2.434 3.71061h6.577z"/><path d="m38.2957 9.60167c.6864 0 1.2429-.56958 1.2429-1.27219 0-.70262-.5565-1.2722-1.2429-1.2722-.6865 0-1.243.56958-1.243 1.2722 0 .70261.5565 1.27219 1.243 1.27219z"/></g><path d="m33.2083 18.3907c-1.0434 1.8958-3.1765 5.8057-3.362 6.2796l-14.7233 14.2179 15.8826-2.6066 6.9559-13.3885z" fill="#fff" stroke="#000"/><path d="m41.8689 22.6418c0-5.4069-4.2984-9.8596-9.6325-9.8596-2.0198 0-3.9359.6361-5.4896 1.7493l-2.5894-8.53434-19.5758 34.50834 5.6967-1.4842-9.995097 17.7578 8.441427-2.8625 3.21087-11.0257c3.2626.159 26.0493.6891 29.6745-18.2348v-.053c.0518-.3711.1553-.7422.2071-1.1132h-.0518c.0518-.3181.1036-.5831.1036-.8481zm-21.7509 13.4641.4143-.3181c12.7916-3.8166 13.3613-12.828 13.3613-12.828l2.1751-.7421c-2.1751 11.6088-15.9507 13.8882-15.9507 13.8882z" fill="#000"/></svg>
