<svg width="114" height="100" viewBox="0 0 114 100" fill="none" xmlns="http://www.w3.org/2000/svg">
<path d="M20.7777 19.995C20.177 15.7206 23.1211 11.6186 27.5599 10.9947C31.8343 10.394 35.9594 13.5025 36.5601 17.7769C37.1839 22.2157 34.0523 26.1764 29.7779 26.7771C25.3391 27.401 21.4015 24.4338 20.7777 19.995ZM32.8136 96.0917C29.8544 96.5076 27.2293 94.5295 26.8134 91.5703L21.661 54.9091L18.0025 63.4703C16.8694 66.1443 13.697 67.4283 11.023 66.2953C8.34907 65.1623 7.06497 61.9898 8.19799 59.3159L15.492 42.029C17.7812 36.8455 22.4617 33.1701 28.0513 32.3845L51.5605 29.0805L49.7121 15.9285C49.1114 11.6541 52.0554 7.55209 56.4942 6.92826L93.3198 1.75276C97.5942 1.15203 101.719 4.26052 102.32 8.53492L107.496 45.3605C108.119 49.7993 104.988 53.76 100.713 54.3607L63.8878 59.5362C59.449 60.1601 55.5114 57.1929 54.8876 52.7541L53.7785 44.8629L64.3001 43.3842L65.0395 48.645L96.6043 44.2088L92.1682 12.644L60.6034 17.0802L62.0821 27.6018L64.7125 27.2321C67.5073 26.8393 70.3198 28.9587 70.7126 31.7535C71.1285 34.7127 68.986 37.3609 66.1912 37.7537L43.8328 40.896L50.487 88.2432C50.9029 91.2024 48.7604 93.8505 45.9656 94.2433C43.0064 94.6592 40.3813 92.6811 39.9654 89.7219L37.008 68.6787L34.3776 69.0484L37.335 90.0915C37.7509 93.0507 35.6084 95.6989 32.8136 96.0917Z" fill="#80D7D8"/>
<path d="M29.1094 49.752H30.1094V46.163L28.2535 49.2348L29.1094 49.752ZM25.4277 55.8457L24.5718 55.3286L24.5702 55.3312L25.4277 55.8457ZM18.4453 51.6562L19.3028 52.1707L19.3036 52.1694L18.4453 51.6562ZM25.8086 39.3418L24.959 38.8144L24.9546 38.8215L24.9503 38.8286L25.8086 39.3418ZM54.5 33.375V34.375H55.5V33.375H54.5ZM54.5 45.5625V44.5625H53.5V45.5625H54.5ZM62.625 45.5625H63.625V44.5625H62.625V45.5625ZM62.625 49.625H61.625V50.625H62.625V49.625ZM87 49.625V50.625H88V49.625H87ZM87 25.25H88V24.25H87V25.25ZM62.625 25.25V24.25H61.625V25.25H62.625ZM62.625 33.375H61.625V34.375H62.625V33.375ZM47.3906 41.5V40.5H46.3906V41.5H47.3906ZM39.2656 61.8125H40.2656V60.8125H39.2656V61.8125ZM37.2344 61.8125V60.8125H36.2344V61.8125H37.2344ZM33.1562 23.2188C33.1562 20.4566 35.3881 18.125 38.25 18.125V16.125C34.2565 16.125 31.1562 19.3793 31.1562 23.2188H33.1562ZM38.25 18.125C40.9985 18.125 43.3438 20.4703 43.3438 23.2188H45.3438C45.3438 19.3657 42.1031 16.125 38.25 16.125V18.125ZM43.3438 23.2188C43.3438 26.0807 41.0121 28.3125 38.25 28.3125V30.3125C42.0895 30.3125 45.3438 27.2123 45.3438 23.2188H43.3438ZM38.25 28.3125C35.3745 28.3125 33.1562 26.0942 33.1562 23.2188H31.1562C31.1562 27.1988 34.27 30.3125 38.25 30.3125V28.3125ZM33.1719 81.125C31.439 81.125 30.1094 79.7954 30.1094 78.0625H28.1094C28.1094 80.8999 30.3344 83.125 33.1719 83.125V81.125ZM30.1094 78.0625V49.752H28.1094V78.0625H30.1094ZM28.2535 49.2348L24.5718 55.3286L26.2836 56.3628L29.9653 50.2691L28.2535 49.2348ZM24.5702 55.3312C23.7118 56.7619 21.787 57.2431 20.3563 56.3847L19.3273 58.0997C21.7052 59.5264 24.8585 58.7381 26.2852 56.3602L24.5702 55.3312ZM20.3563 56.3847C18.9256 55.5263 18.4444 53.6015 19.3028 52.1707L17.5878 51.1418C16.1611 53.5196 16.9494 56.673 19.3273 58.0997L20.3563 56.3847ZM19.3036 52.1694L26.6669 39.855L24.9503 38.8286L17.587 51.1431L19.3036 52.1694ZM26.6582 39.8692C28.7695 36.4676 32.3911 34.375 36.3457 34.375V32.375C31.6675 32.375 27.418 34.8527 24.959 38.8144L26.6582 39.8692ZM36.3457 34.375H54.5V32.375H36.3457V34.375ZM55.5 33.375V23.2188H53.5V33.375H55.5ZM55.5 23.2188C55.5 20.4566 57.7318 18.125 60.5938 18.125V16.125C56.6002 16.125 53.5 19.3793 53.5 23.2188H55.5ZM60.5938 18.125H89.0312V16.125H60.5938V18.125ZM89.0312 18.125C91.7797 18.125 94.125 20.4703 94.125 23.2188H96.125C96.125 19.3657 92.8843 16.125 89.0312 16.125V18.125ZM94.125 23.2188V51.6562H96.125V23.2188H94.125ZM94.125 51.6562C94.125 54.5182 91.7934 56.75 89.0312 56.75V58.75C92.8707 58.75 96.125 55.6498 96.125 51.6562H94.125ZM89.0312 56.75H60.5938V58.75H89.0312V56.75ZM60.5938 56.75C57.7183 56.75 55.5 54.5317 55.5 51.6562H53.5C53.5 55.6363 56.6137 58.75 60.5938 58.75V56.75ZM55.5 51.6562V45.5625H53.5V51.6562H55.5ZM54.5 46.5625H62.625V44.5625H54.5V46.5625ZM61.625 45.5625V49.625H63.625V45.5625H61.625ZM62.625 50.625H87V48.625H62.625V50.625ZM88 49.625V25.25H86V49.625H88ZM87 24.25H62.625V26.25H87V24.25ZM61.625 25.25V33.375H63.625V25.25H61.625ZM62.625 34.375H64.6562V32.375H62.625V34.375ZM64.6562 34.375C66.2622 34.375 67.7188 35.8316 67.7188 37.4375H69.7188C69.7188 34.727 67.3667 32.375 64.6562 32.375V34.375ZM67.7188 37.4375C67.7188 39.1502 66.2826 40.5 64.6562 40.5V42.5C67.3464 42.5 69.7188 40.2951 69.7188 37.4375H67.7188ZM64.6562 40.5H47.3906V42.5H64.6562V40.5ZM46.3906 41.5V78.0625H48.3906V41.5H46.3906ZM46.3906 78.0625C46.3906 79.7752 44.9544 81.125 43.3281 81.125V83.125C46.0182 83.125 48.3906 80.9201 48.3906 78.0625H46.3906ZM43.3281 81.125C41.5953 81.125 40.2656 79.7954 40.2656 78.0625H38.2656C38.2656 80.8999 40.4907 83.125 43.3281 83.125V81.125ZM40.2656 78.0625V61.8125H38.2656V78.0625H40.2656ZM39.2656 60.8125H37.2344V62.8125H39.2656V60.8125ZM36.2344 61.8125V78.0625H38.2344V61.8125H36.2344ZM36.2344 78.0625C36.2344 79.7752 34.7982 81.125 33.1719 81.125V83.125C35.862 83.125 38.2344 80.9201 38.2344 78.0625H36.2344Z" fill="#262626"/>
</svg>
