<svg width="87" height="98" viewBox="0 0 87 98" fill="none" xmlns="http://www.w3.org/2000/svg">
<path d="M40.5525 30.6022C41.346 32.6701 41.6464 34.8073 41.618 36.9907C41.402 39.0328 40.6929 41.1442 39.6318 43.1375C37.6999 46.0913 34.9949 48.3156 31.4936 49.6459L36.5074 85.3207C36.7615 87.1291 36.335 88.8656 35.369 90.3425C34.2155 91.6781 32.664 92.5668 30.8556 92.8209C29.2116 93.052 27.4751 92.6254 25.9982 91.6595C24.6626 90.506 23.6095 88.9775 23.3554 87.1691L18.3416 51.4943C14.7968 51.3219 11.3959 49.7881 8.88905 47.4581C7.3428 45.9989 6.07914 44.1648 5.28558 42.0969C4.49202 40.029 4.35605 37.8687 4.54889 35.6622L6.33862 12.6106C6.4106 11.9299 6.67009 11.3905 7.09397 10.828C7.70536 10.4068 8.17546 10.1731 8.85616 10.2451C9.51376 10.1526 10.2176 10.389 10.7801 10.8129C11.1782 11.2599 11.5994 11.8713 11.6687 12.3645L14.9958 36.0381L17.7906 35.6453L17.1659 10.9213C17.261 10.405 17.3561 9.8887 17.8031 9.49059C18.0857 9.11558 18.5558 8.88186 19.049 8.81255C19.7066 8.72013 20.2229 8.81521 20.5979 9.0978C21.1373 9.35729 21.371 9.82738 21.6047 10.2975L27.819 34.2359L30.6138 33.8431L27.2867 10.1695C27.2174 9.67631 27.4538 8.9725 27.7133 8.43309C28.1372 7.87058 28.7486 7.44936 29.4062 7.35694C30.0407 7.10012 30.557 7.1952 31.2608 7.43158C31.8233 7.85547 32.2214 8.30246 32.4782 8.93695L40.5525 30.6022ZM85.3342 78.4586C85.5883 80.267 84.9974 82.0265 84.0314 83.5034C82.8779 84.8391 81.3264 85.7277 79.6824 85.9588C77.874 86.2129 76.1375 85.7864 74.6606 84.8204C73.325 83.667 72.4363 82.1154 72.1822 80.307L69.4096 60.579L66.6148 60.9718C65.1352 61.1797 63.7969 61.2001 62.4124 60.8918C61.0047 60.419 59.7615 59.9232 58.6365 59.0754C57.5115 58.2276 56.669 57.0048 55.8497 55.9465C55.1716 54.7006 54.7993 53.2441 54.6145 51.9289L51.9805 33.1873C51.29 27.0814 52.2666 20.9088 54.8615 15.5147C57.5976 9.93312 61.8338 5.48188 67.2644 2.37161C67.8757 1.95039 68.839 1.64736 69.6841 1.69624C70.5061 1.58071 71.3744 1.79399 72.1013 2.19477C72.9926 2.57244 73.5782 3.16073 74.1869 3.91341C74.6082 4.5248 74.8881 5.3237 75.168 6.12259L85.3342 78.4586Z" fill="#80D7D8"/>
<path d="M43.1191 34.041L42.1426 34.2564L42.1447 34.2659L43.1191 34.041ZM43.2461 38.9922L44.2162 39.2347L44.2274 39.1899L44.2345 39.1442L43.2461 38.9922ZM41.0879 43.4355L41.8405 44.0941L41.8701 44.0602L41.8966 44.0237L41.0879 43.4355ZM34.2324 47.498L34.0108 46.5229L33.2324 46.6998V47.498H34.2324ZM32.8359 78.7285L33.4944 79.4811L33.5446 79.4372L33.5885 79.387L32.8359 78.7285ZM25.5996 78.7285L24.847 79.387L24.8909 79.4372L24.9411 79.4811L25.5996 78.7285ZM24.0762 47.498H25.0762V46.6705L24.2633 46.5157L24.0762 47.498ZM17.3477 43.4355L16.5668 44.0603L16.5715 44.0661L17.3477 43.4355ZM15.3164 34.041L16.2908 34.2659L16.2929 34.2564L15.3164 34.041ZM19.125 16.7754L18.1549 16.5329L18.1515 16.5464L18.1485 16.56L19.125 16.7754ZM19.8867 15.5059L19.4395 14.6114L19.2944 14.684L19.1796 14.7988L19.8867 15.5059ZM21.2832 15.252L21.0407 16.2221L21.1601 16.252H21.2832V15.252ZM22.6797 15.8867L23.5117 15.332L23.4568 15.2496L23.3868 15.1796L22.6797 15.8867ZM23.1875 35.4375H22.1875V36.4375H23.1875V35.4375ZM25.3457 35.4375V36.4375H26.2374L26.3392 35.5516L25.3457 35.4375ZM27.5039 16.6484L26.5552 16.3322L26.5223 16.4309L26.5104 16.5343L27.5039 16.6484ZM28.1387 15.6328L28.6934 16.4649L28.7758 16.4099L28.8458 16.3399L28.1387 15.6328ZM30.2969 15.6328L29.5898 16.3399L29.6598 16.4099L29.7422 16.4649L30.2969 15.6328ZM30.9316 16.6484L31.9251 16.5343L31.9132 16.4309L31.8803 16.3322L30.9316 16.6484ZM33.0898 35.4375L32.0964 35.5516L32.1981 36.4375H33.0898V35.4375ZM35.248 35.4375V36.4375H36.248V35.4375H35.248ZM35.7559 15.8867L35.0488 15.1796L34.9787 15.2496L34.9238 15.332L35.7559 15.8867ZM37.1523 15.252V16.252H37.2754L37.3949 16.2221L37.1523 15.252ZM38.5488 15.5059L39.2559 14.7988L39.1412 14.684L38.996 14.6114L38.5488 15.5059ZM39.3105 16.7754L40.2871 16.56L40.2841 16.5464L40.2807 16.5329L39.3105 16.7754ZM70.4141 78.7285L71.0726 79.4811L71.1227 79.4372L71.1666 79.387L70.4141 78.7285ZM63.1777 78.7285L62.4252 79.387L62.4691 79.4372L62.5192 79.4811L63.1777 78.7285ZM61.7812 59.8125H62.7812V58.8125H61.7812V59.8125ZM56.4492 59.3047L56.002 60.1991L56.049 60.2226L56.0981 60.241L56.4492 59.3047ZM52.0059 54.8613L51.0695 55.2125L51.0977 55.2877L51.1376 55.3575L52.0059 54.8613ZM51.498 37.2148L50.4984 37.1878L50.498 37.2013V37.2148H51.498ZM55.5605 24.1387L54.7326 23.5778L54.7285 23.584L55.5605 24.1387ZM66.3516 15.5059L66.723 16.4343L66.7616 16.4189L66.7988 16.4003L66.3516 15.5059ZM68.2559 15.252L68.0597 16.2325L68.1568 16.252H68.2559V15.252ZM70.0332 15.8867L69.4332 16.6867L69.4745 16.7177L69.5187 16.7442L70.0332 15.8867ZM71.4297 17.4102L72.3241 16.9629L72.3069 16.9286L72.2872 16.8957L71.4297 17.4102ZM71.9375 19.1875H72.9375V19.0885L72.9181 18.9914L71.9375 19.1875ZM42.1447 34.2659C42.4919 35.7701 42.4962 37.2901 42.2577 38.8401L44.2345 39.1442C44.5038 37.3935 44.5081 35.6127 44.0935 33.8162L42.1447 34.2659ZM42.276 38.7497C41.9319 40.1257 41.2345 41.5337 40.2792 42.8474L41.8966 44.0237C42.9725 42.5444 43.7985 40.9055 44.2162 39.2347L42.276 38.7497ZM40.3353 42.777C38.6965 44.65 36.5969 45.9352 34.0108 46.5229L34.454 48.4732C37.4539 47.7914 39.9246 46.2836 41.8405 44.0941L40.3353 42.777ZM33.2324 47.498V75.0469H35.2324V47.498H33.2324ZM33.2324 75.0469C33.2324 76.1902 32.8199 77.2283 32.0834 78.07L33.5885 79.387C34.6293 78.1975 35.2324 76.6965 35.2324 75.0469H33.2324ZM32.1774 77.9759C31.3357 78.7125 30.2976 79.125 29.1543 79.125V81.125C30.8039 81.125 32.3049 80.5219 33.4944 79.4811L32.1774 77.9759ZM29.1543 79.125C28.15 79.125 27.1096 78.721 26.2581 77.9759L24.9411 79.4811C26.1209 80.5134 27.6195 81.125 29.1543 81.125V79.125ZM26.3522 78.07C25.5713 77.1775 25.0762 76.1327 25.0762 75.0469H23.0762C23.0762 76.7541 23.8506 78.2482 24.847 79.387L26.3522 78.07ZM25.0762 75.0469V47.498H23.0762V75.0469H25.0762ZM24.2633 46.5157C21.843 46.0547 19.6347 44.6646 18.1238 42.805L16.5715 44.0661C18.3614 46.269 20.9774 47.9258 23.8891 48.4804L24.2633 46.5157ZM18.1285 42.8109C17.2028 41.6537 16.5097 40.2659 16.1638 38.7673L14.2151 39.217C14.631 41.0193 15.4612 42.6783 16.5668 44.0602L18.1285 42.8109ZM16.1638 38.7673C15.828 37.3119 15.9313 35.8238 16.2908 34.2659L14.342 33.8162C13.9398 35.559 13.7892 37.3717 14.2151 39.217L16.1638 38.7673ZM16.2929 34.2564L20.1015 16.9908L18.1485 16.56L14.3399 33.8256L16.2929 34.2564ZM20.0951 17.0179C20.1667 16.7317 20.3031 16.5037 20.5938 16.213L19.1796 14.7988C18.7086 15.2698 18.3372 15.8035 18.1549 16.5329L20.0951 17.0179ZM20.3339 16.4003C20.5683 16.2831 20.6992 16.2343 20.7945 16.2139C20.867 16.1984 20.9345 16.1956 21.0407 16.2221L21.5257 14.2818C20.6655 14.0668 20.0139 14.3242 19.4395 14.6114L20.3339 16.4003ZM21.2832 16.252C21.4658 16.252 21.7321 16.3533 21.9726 16.5938L23.3868 15.1796C22.8656 14.6584 22.1162 14.252 21.2832 14.252V16.252ZM21.8476 16.4414C21.9491 16.5936 22.0438 16.7617 22.1097 16.9154C22.1824 17.0852 22.1875 17.1622 22.1875 17.1562H24.1875C24.1875 16.7694 24.0656 16.4022 23.948 16.1276C23.8234 15.8369 23.6642 15.5607 23.5117 15.332L21.8476 16.4414ZM22.1875 17.1562V35.4375H24.1875V17.1562H22.1875ZM23.1875 36.4375H25.3457V34.4375H23.1875V36.4375ZM26.3392 35.5516L28.4974 16.7626L26.5104 16.5343L24.3522 35.3234L26.3392 35.5516ZM28.4526 16.9647C28.5211 16.7592 28.5586 16.655 28.604 16.5719C28.6382 16.5091 28.6638 16.4846 28.6934 16.4649L27.584 14.8008C26.8793 15.2705 26.6694 15.9896 26.5552 16.3322L28.4526 16.9647ZM28.8458 16.3399C28.8697 16.316 28.9719 16.252 29.1543 16.252V14.252C28.575 14.252 27.9154 14.4418 27.4316 14.9257L28.8458 16.3399ZM29.1543 16.252C29.508 16.252 29.5895 16.3397 29.5898 16.3399L31.004 14.9257C30.4964 14.4181 29.8163 14.252 29.1543 14.252V16.252ZM29.7422 16.4649C29.7717 16.4846 29.7973 16.5091 29.8316 16.5719C29.8769 16.655 29.9145 16.7592 29.983 16.9647L31.8803 16.3322C31.7661 15.9896 31.5562 15.2705 30.8516 14.8008L29.7422 16.4649ZM29.9382 16.7626L32.0964 35.5516L34.0833 35.3234L31.9251 16.5343L29.9382 16.7626ZM33.0898 36.4375H35.248V34.4375H33.0898V36.4375ZM36.248 35.4375V17.1562H34.248V35.4375H36.248ZM36.248 17.1562C36.248 17.1622 36.2531 17.0852 36.3259 16.9154C36.3917 16.7617 36.4865 16.5936 36.5879 16.4414L34.9238 15.332C34.7713 15.5607 34.6122 15.8369 34.4876 16.1276C34.3699 16.4022 34.248 16.7694 34.248 17.1562H36.248ZM36.463 16.5938C36.7035 16.3533 36.9698 16.252 37.1523 16.252V14.252C36.3193 14.252 35.57 14.6584 35.0488 15.1796L36.463 16.5938ZM37.3949 16.2221C37.5011 16.1956 37.5686 16.1984 37.6411 16.2139C37.7364 16.2343 37.8672 16.2831 38.1016 16.4003L38.996 14.6114C38.4217 14.3242 37.77 14.0668 36.9098 14.2818L37.3949 16.2221ZM37.8417 16.213C38.1324 16.5037 38.2688 16.7317 38.3404 17.0179L40.2807 16.5329C40.0984 15.8035 39.7269 15.2698 39.2559 14.7988L37.8417 16.213ZM38.334 16.9908L42.1426 34.2564L44.0957 33.8256L40.2871 16.56L38.334 16.9908ZM70.9375 75.0469C70.9375 76.1327 70.4424 77.1775 69.6615 78.07L71.1666 79.387C72.1631 78.2482 72.9375 76.7541 72.9375 75.0469H70.9375ZM69.7556 77.9759C68.9041 78.721 67.8636 79.125 66.8594 79.125V81.125C68.3942 81.125 69.8928 80.5134 71.0726 79.4811L69.7556 77.9759ZM66.8594 79.125C65.716 79.125 64.678 78.7125 63.8362 77.9759L62.5192 79.4811C63.7087 80.5219 65.2097 81.125 66.8594 81.125V79.125ZM63.9303 78.07C63.1938 77.2283 62.7812 76.1902 62.7812 75.0469H60.7812C60.7812 76.6965 61.3843 78.1975 62.4252 79.387L63.9303 78.07ZM62.7812 75.0469V59.8125H60.7812V75.0469H62.7812ZM61.7812 58.8125H59.623V60.8125H61.7812V58.8125ZM59.623 58.8125C58.5579 58.8125 57.6698 58.6944 56.8003 58.3684L56.0981 60.241C57.2599 60.6767 58.403 60.8125 59.623 60.8125V58.8125ZM56.8964 58.4103C55.9022 57.9131 55.1336 57.4635 54.4903 56.8202L53.0761 58.2345C53.9563 59.1146 54.965 59.6806 56.002 60.1991L56.8964 58.4103ZM54.4903 56.8202C53.8501 56.18 53.4256 55.3304 52.8741 54.3652L51.1376 55.3575C51.6017 56.1696 52.1929 57.3512 53.0761 58.2345L54.4903 56.8202ZM52.9422 54.5102C52.6178 53.6453 52.498 52.6326 52.498 51.6875H50.498C50.498 52.7737 50.6322 54.0461 51.0695 55.2125L52.9422 54.5102ZM52.498 51.6875V37.2148H50.498V51.6875H52.498ZM52.4977 37.2419C52.6198 32.7222 53.9636 28.3368 56.3926 24.6934L54.7285 23.584C52.0793 27.5577 50.6302 32.3129 50.4984 37.1878L52.4977 37.2419ZM56.3885 24.6995C58.9391 20.9343 62.4595 18.1397 66.723 16.4343L65.9802 14.5774C61.3569 16.4267 57.514 19.472 54.7326 23.5778L56.3885 24.6995ZM66.7988 16.4003C67.1189 16.2402 67.655 16.1516 68.0597 16.2325L68.452 14.2714C67.5872 14.0984 66.5999 14.2637 65.9044 14.6114L66.7988 16.4003ZM68.2559 16.252C68.6324 16.252 69.0617 16.4081 69.4332 16.6867L70.6332 15.0867C69.9891 14.6036 69.1488 14.252 68.2559 14.252V16.252ZM69.5187 16.7442C69.9448 16.9998 70.2225 17.3418 70.5722 17.9247L72.2872 16.8957C71.8752 16.209 71.3912 15.5353 70.5477 15.0292L69.5187 16.7442ZM70.5353 17.8574C70.7175 18.2217 70.8228 18.7132 70.9569 19.3836L72.9181 18.9914C72.7983 18.3923 72.6497 17.6142 72.3241 16.9629L70.5353 17.8574ZM70.9375 19.1875V75.0469H72.9375V19.1875H70.9375Z" fill="#262626"/>
</svg>
