<svg width="107" height="94" viewBox="0 0 107 94" fill="none" xmlns="http://www.w3.org/2000/svg">
<path d="M74.4065 78.238L41.5709 73.6322L32.6524 10.1738L65.488 14.7796L74.4065 78.238ZM70.7026 13.7115L90.403 2.39274C92.7304 1.05977 95.9438 2.45228 96.3365 5.24708L104.077 60.3211C104.308 61.9651 103.529 63.5833 101.955 64.3075L79.6211 77.1699L70.7026 13.7115ZM4.93993 24.1273L27.4378 11.2419L36.3563 74.7003L16.4915 86.0421C14.1641 87.3751 11.1152 85.9595 10.7224 83.1647L2.98224 28.0907C2.75119 26.4467 3.36524 24.8516 4.93993 24.1273Z" fill="#80D7D8"/>
<path d="M88.666 15.8223L88.0258 16.5905L88.0935 16.6468L88.1699 16.6905L88.666 15.8223ZM88.0312 63.8105L88.3872 64.745L88.4126 64.7354L88.4374 64.7244L88.0312 63.8105ZM66.7031 71.9355L66.3471 71.0011L66.3394 71.004L66.3317 71.0071L66.7031 71.9355ZM64.6719 71.9355L65.0433 71.0071L65.0152 70.9958L64.9866 70.9864L64.6719 71.9355ZM41.3125 64.1914L41.6272 63.2422L41.2891 63.1301L40.9563 63.257L41.3125 64.1914ZM21 71.9355L20.6438 71.0012L20.6248 71.0084L20.6061 71.0164L21 71.9355ZM18.207 71.5547L18.8472 70.7865L18.7796 70.7301L18.7032 70.6864L18.207 71.5547ZM18.8418 23.5664L18.4858 22.6319L18.4604 22.6416L18.4357 22.6526L18.8418 23.5664ZM40.1699 15.4414L40.5259 16.3759L40.5336 16.373L40.5413 16.3699L40.1699 15.4414ZM42.2012 15.4414L41.8298 16.3699L41.8578 16.3811L41.8865 16.3906L42.2012 15.4414ZM65.5605 23.1855L65.2459 24.1347L65.584 24.2468L65.9168 24.1199L65.5605 23.1855ZM85.873 15.4414L86.2293 16.3758L86.2483 16.3686L86.267 16.3606L85.873 15.4414ZM23.0312 64.6992H22.0312V66.1535L23.3892 65.633L23.0312 64.6992ZM38.2656 58.8594L38.6236 59.7931L39.2656 59.547V58.8594H38.2656ZM38.2656 22.6777H39.2656V21.2234L37.9077 21.744L38.2656 22.6777ZM23.0312 28.5176L22.6733 27.5838L22.0312 27.83V28.5176H23.0312ZM62.6406 28.6445H63.6406V27.9238L62.9569 27.6958L62.6406 28.6445ZM44.3594 22.5508L44.6756 21.6021L43.3594 21.1634V22.5508H44.3594ZM44.3594 58.7324H43.3594V59.4532L44.0431 59.6811L44.3594 58.7324ZM62.6406 64.8262L62.3244 65.7749L63.6406 66.2136V64.8262H62.6406ZM68.7344 64.6992H67.7344V66.1535L69.0923 65.633L68.7344 64.6992ZM83.9688 58.8594L84.3267 59.7931L84.9688 59.547V58.8594H83.9688ZM83.9688 22.6777H84.9688V21.2234L83.6108 21.744L83.9688 22.6777ZM68.7344 28.5176L68.3764 27.5838L67.7344 27.83V28.5176H68.7344ZM88.1699 16.6905C88.7223 17.0062 89.0625 17.6752 89.0625 18.2344H91.0625C91.0625 17.0162 90.3871 15.654 89.1622 14.954L88.1699 16.6905ZM89.0625 18.2344V60.8906H91.0625V18.2344H89.0625ZM89.0625 60.8906C89.0625 61.6931 88.4772 62.518 87.6251 62.8967L88.4374 64.7244C89.8705 64.0874 91.0625 62.6272 91.0625 60.8906H89.0625ZM87.6753 62.8761L66.3471 71.0011L67.0591 72.87L88.3872 64.745L87.6753 62.8761ZM66.3317 71.0071C65.9354 71.1656 65.4396 71.1656 65.0433 71.0071L64.3005 72.864C65.1737 73.2133 66.2013 73.2133 67.0745 72.864L66.3317 71.0071ZM64.9866 70.9864L41.6272 63.2422L40.9978 65.1406L64.3572 72.8847L64.9866 70.9864ZM40.9563 63.257L20.6438 71.0012L21.3562 72.8699L41.6687 65.1258L40.9563 63.257ZM20.6061 71.0164C20.0389 71.2595 19.3004 71.1641 18.8472 70.7865L17.5668 72.3229C18.6371 73.2148 20.1838 73.3733 21.3939 72.8547L20.6061 71.0164ZM18.7032 70.6864C18.2383 70.4208 17.9375 69.8238 17.9375 69.0156H15.9375C15.9375 70.2387 16.3984 71.6729 17.7109 72.4229L18.7032 70.6864ZM17.9375 69.0156V26.3594H15.9375V69.0156H17.9375ZM17.9375 26.3594C17.9375 25.5383 18.4151 24.8504 19.2479 24.4802L18.4357 22.6526C16.9833 23.2981 15.9375 24.6414 15.9375 26.3594H17.9375ZM19.1978 24.5009L40.5259 16.3759L39.8139 14.5069L18.4858 22.6319L19.1978 24.5009ZM40.5413 16.3699C40.9377 16.2113 41.4334 16.2113 41.8298 16.3699L42.5726 14.5129C41.6994 14.1637 40.6717 14.1637 39.7985 14.5129L40.5413 16.3699ZM41.8865 16.3906L65.2459 24.1347L65.8752 22.2363L42.5159 14.4922L41.8865 16.3906ZM65.9168 24.1199L86.2293 16.3758L85.5168 14.507L65.2043 22.2512L65.9168 24.1199ZM86.267 16.3606C86.8342 16.1175 87.5727 16.2129 88.0258 16.5905L89.3062 15.054C88.2359 14.1621 86.6893 14.0036 85.4791 14.5223L86.267 16.3606ZM23.3892 65.633L38.6236 59.7931L37.9077 57.9256L22.6733 63.7655L23.3892 65.633ZM39.2656 58.8594V22.6777H37.2656V58.8594H39.2656ZM37.9077 21.744L22.6733 27.5838L23.3892 29.4513L38.6236 23.6115L37.9077 21.744ZM22.0312 28.5176V64.6992H24.0312V28.5176H22.0312ZM62.9569 27.6958L44.6756 21.6021L44.0431 23.4995L62.3244 29.5932L62.9569 27.6958ZM43.3594 22.5508V58.7324H45.3594V22.5508H43.3594ZM44.0431 59.6811L62.3244 65.7749L62.9569 63.8775L44.6756 57.7837L44.0431 59.6811ZM63.6406 64.8262V28.6445H61.6406V64.8262H63.6406ZM69.0923 65.633L84.3267 59.7931L83.6108 57.9256L68.3764 63.7655L69.0923 65.633ZM84.9688 58.8594V22.6777H82.9688V58.8594H84.9688ZM83.6108 21.744L68.3764 27.5838L69.0923 29.4513L84.3267 23.6115L83.6108 21.744ZM67.7344 28.5176V64.6992H69.7344V28.5176H67.7344Z" fill="#262626"/>
</svg>
