<svg fill="none" height="25" viewBox="0 0 24 25" width="24" aria-hidden="true"><path d="m22.6855 20.7754-4.4921-4.4922c-.2246-.1797-.4942-.3144-.7637-.3144h-.7188c1.2129-1.5723 1.9766-3.5489 1.9766-5.75 0-5.12114-4.2227-9.3438-9.34375-9.3438-5.16602 0-9.34375 4.22266-9.34375 9.3438 0 5.166 4.17773 9.3437 9.34375 9.3437 2.15625 0 4.13285-.7187 5.75005-1.9766v.7637c0 .2695.0898.5391.3144.7637l4.4473 4.4472c.4492.4493 1.123.4493 1.5273 0l1.2578-1.2578c.4492-.4043.4492-1.0781.0449-1.5273zm-13.34175-4.8066c-3.18945 0-5.75-2.5606-5.75-5.75 0-3.14458 2.56055-5.75005 5.75-5.75005 3.14455 0 5.75005 2.60547 5.75005 5.75005 0 3.1894-2.6055 5.75-5.75005 5.75z" fill="#262626"/></svg>
