<svg width="95" height="93" viewBox="0 0 95 93" fill="none" xmlns="http://www.w3.org/2000/svg">
<path d="M4.61484 15.7915C4.29137 13.4899 5.86872 11.5918 8.00592 11.2914L13.2667 10.5521C15.5683 10.2286 17.4434 11.6415 17.7668 13.9431L20.5163 33.5067L23.1467 33.1371C25.4483 32.8136 27.3465 34.3909 27.6468 36.5281C27.9703 38.8297 26.5574 40.7048 24.2558 41.0283L11.1038 42.8767C8.96656 43.177 6.92711 41.7872 6.60364 39.4856C6.30328 37.3484 7.85752 35.2858 9.99472 34.9855L12.6251 34.6158L10.4302 18.9978L9.11495 19.1826C6.97775 19.483 4.9152 17.9287 4.61484 15.7915ZM21.5569 61.1899C20.3857 60.0133 18.436 60.455 17.6344 61.9088L16.1726 64.629C15.1116 66.6222 12.7149 67.462 10.886 66.3779C8.89281 65.3168 8.05303 62.9201 9.13718 61.0913L10.5759 58.2067C13.759 52.227 21.5809 50.6248 26.736 55.0973C30.9073 58.5346 31.5978 64.6405 28.5355 69.0944L23.6364 75.9859L29.226 75.2003C31.3632 74.9 33.4257 76.4542 33.7261 78.5914C34.0496 80.893 32.4722 82.7912 30.335 83.0915L15.8678 85.1248C14.2238 85.3558 12.6287 84.7418 11.9275 83.3315C11.062 81.9443 10.9954 80.2772 11.9844 78.9647L22.019 64.4779C22.7024 63.376 22.5176 62.0608 21.5569 61.1899ZM79.9074 6.38339C82.7022 5.99061 85.5147 8.11003 85.9075 10.9048C86.3234 13.864 84.1809 16.5122 81.3861 16.905L39.2997 22.8198C36.3405 23.2357 33.7154 21.2576 33.2995 18.2984C32.9067 15.5036 34.8618 12.7141 37.821 12.2982L79.9074 6.38339ZM83.6041 32.6874C86.3989 32.2946 89.2115 34.414 89.6043 37.2088C90.0202 40.168 87.8777 42.8162 85.0829 43.209L42.9965 49.1238C40.0373 49.5397 37.4122 47.5616 36.9963 44.6024C36.6035 41.8076 38.5586 39.0181 41.5178 38.6022L83.6041 32.6874ZM87.3009 58.9914C90.0957 58.5986 92.9083 60.718 93.3011 63.5128C93.717 66.472 91.5744 69.1202 88.7796 69.513L46.6933 75.4278C43.7341 75.8437 41.109 73.8656 40.6931 70.9064C40.3003 68.1116 42.2553 65.3221 45.2145 64.9062L87.3009 58.9914Z" fill="#80D7D8"/>
<path d="M28.0762 32.4688H27.0762V33.4688H28.0762V32.4688ZM21.9824 32.4688V33.4688H22.9824V32.4688H21.9824ZM21.9824 20.4082H22.9824V19.4082H21.9824V20.4082ZM25.918 53.543L25.118 54.143L25.1333 54.1635L25.1497 54.1832L25.918 53.543ZM22.8711 53.6699L22.071 53.0699L22.0647 53.0786L22.8711 53.6699ZM21.4746 55.5742L20.6682 54.9828L20.6659 54.986L21.4746 55.5742ZM17.2852 56.3359L17.9099 55.5551L17.8919 55.5407L17.8733 55.5272L17.2852 56.3359ZM16.5234 52.1465L17.3043 52.7712L17.3269 52.7429L17.3475 52.713L16.5234 52.1465ZM17.9199 50.1152L17.1112 49.5271L17.1034 49.5378L17.0959 49.5487L17.9199 50.1152ZM30.4883 49.4805L29.7342 50.1372L29.7425 50.1468L29.7511 50.1562L30.4883 49.4805ZM30.3613 60.2715L31.0878 60.9587L31.0932 60.953L31.0985 60.9472L30.3613 60.2715ZM25.918 64.9688L25.1915 64.2816L23.5955 65.9688H25.918V64.9688ZM16.2695 69.2852L17.2182 68.9689L17.2029 68.9231L17.1833 68.879L16.2695 69.2852ZM16.7773 65.9844L17.4845 66.6915L17.4986 66.6773L17.5121 66.6627L16.7773 65.9844ZM25.918 56.082L26.6528 56.7603L26.67 56.7417L26.6862 56.7222L25.918 56.082ZM18.9199 17.3613C18.9199 16.1634 19.8412 15.3145 20.9668 15.3145V13.3145C18.7916 13.3145 16.9199 15.0046 16.9199 17.3613H18.9199ZM20.9668 15.3145H25.0293V13.3145H20.9668V15.3145ZM25.0293 15.3145C26.2544 15.3145 27.0762 16.1363 27.0762 17.3613H29.0762C29.0762 15.0317 27.3589 13.3145 25.0293 13.3145V15.3145ZM27.0762 17.3613V32.4688H29.0762V17.3613H27.0762ZM28.0762 33.4688H30.1074V31.4688H28.0762V33.4688ZM30.1074 33.4688C31.3054 33.4688 32.1543 34.39 32.1543 35.5156H34.1543C34.1543 33.3405 32.4642 31.4688 30.1074 31.4688V33.4688ZM32.1543 35.5156C32.1543 36.7407 31.3325 37.5625 30.1074 37.5625V39.5625C32.437 39.5625 34.1543 37.8453 34.1543 35.5156H32.1543ZM30.1074 37.5625H19.9512V39.5625H30.1074V37.5625ZM19.9512 37.5625C18.8255 37.5625 17.9043 36.7136 17.9043 35.5156H15.9043C15.9043 37.8724 17.776 39.5625 19.9512 39.5625V37.5625ZM17.9043 35.5156C17.9043 34.4175 18.8531 33.4688 19.9512 33.4688V31.4688C17.7485 31.4688 15.9043 33.313 15.9043 35.5156H17.9043ZM19.9512 33.4688H21.9824V31.4688H19.9512V33.4688ZM22.9824 32.4688V20.4082H20.9824V32.4688H22.9824ZM21.9824 19.4082H20.9668V21.4082H21.9824V19.4082ZM20.9668 19.4082C19.8687 19.4082 18.9199 18.4594 18.9199 17.3613H16.9199C16.9199 19.564 18.7641 21.4082 20.9668 21.4082V19.4082ZM26.718 52.943C25.4838 51.2975 23.1573 51.6216 22.0711 53.0699L23.6711 54.2699C24.1083 53.687 24.8287 53.7572 25.118 54.143L26.718 52.943ZM22.0647 53.0786L20.6682 54.9829L22.281 56.1656L23.6775 54.2613L22.0647 53.0786ZM20.6659 54.986C19.9255 56.004 18.658 56.1536 17.9099 55.5551L16.6605 57.1168C18.4513 58.5495 20.9924 57.9374 22.2833 56.1624L20.6659 54.986ZM17.8733 55.5272C16.8554 54.7869 16.7058 53.5194 17.3043 52.7712L15.7426 51.5218C14.3099 53.3127 14.922 55.8538 16.697 57.1447L17.8733 55.5272ZM17.3475 52.713L18.744 50.6818L17.0959 49.5487L15.6994 51.58L17.3475 52.713ZM18.7287 50.7034C21.4109 47.0154 26.7432 46.7031 29.7342 50.1372L31.2424 48.8237C27.3779 44.3868 20.5227 44.8362 17.1112 49.5271L18.7287 50.7034ZM29.7511 50.1562C32.1738 52.7991 32.0869 56.9092 29.6242 59.5958L31.0985 60.9472C34.2217 57.5401 34.3887 52.2556 31.2254 48.8047L29.7511 50.1562ZM29.6349 59.5843L25.1915 64.2816L26.6444 65.656L31.0878 60.9587L29.6349 59.5843ZM25.918 65.9688H30.2344V63.9688H25.918V65.9688ZM30.2344 65.9688C31.3325 65.9688 32.2812 66.9175 32.2812 68.0156H34.2812C34.2812 65.813 32.437 63.9688 30.2344 63.9688V65.9688ZM32.2812 68.0156C32.2812 69.2136 31.36 70.0625 30.2344 70.0625V72.0625C32.4095 72.0625 34.2812 70.3724 34.2812 68.0156H32.2812ZM30.2344 70.0625H19.0625V72.0625H30.2344V70.0625ZM19.0625 70.0625C18.0944 70.0625 17.4262 69.5929 17.2182 68.9689L15.3208 69.6014C15.8746 71.2626 17.4915 72.0625 19.0625 72.0625V70.0625ZM17.1833 68.879C16.8127 68.045 16.9387 67.2372 17.4845 66.6915L16.0702 65.2773C14.8386 66.5089 14.7108 68.2402 15.3557 69.6913L17.1833 68.879ZM17.5121 66.6627L26.6528 56.7603L25.1832 55.4038L16.0425 65.3061L17.5121 66.6627ZM26.6862 56.7222C27.63 55.5896 27.63 54.0354 26.6862 52.9028L25.1497 54.1832C25.4755 54.574 25.4755 55.051 25.1497 55.4418L26.6862 56.7222ZM75.9375 19.25C77.5434 19.25 79 20.7066 79 22.3125H81C81 19.602 78.648 17.25 75.9375 17.25V19.25ZM79 22.3125C79 24.0252 77.5638 25.375 75.9375 25.375V27.375C78.6276 27.375 81 25.1701 81 22.3125H79ZM75.9375 25.375H43.4375V27.375H75.9375V25.375ZM43.4375 25.375C41.7046 25.375 40.375 24.0454 40.375 22.3125H38.375C38.375 25.1499 40.6001 27.375 43.4375 27.375V25.375ZM40.375 22.3125C40.375 20.6862 41.7248 19.25 43.4375 19.25V17.25C40.5799 17.25 38.375 19.6224 38.375 22.3125H40.375ZM43.4375 19.25H75.9375V17.25H43.4375V19.25ZM75.9375 39.5625C77.5434 39.5625 79 41.0191 79 42.625H81C81 39.9145 78.648 37.5625 75.9375 37.5625V39.5625ZM79 42.625C79 44.3377 77.5638 45.6875 75.9375 45.6875V47.6875C78.6276 47.6875 81 45.4826 81 42.625H79ZM75.9375 45.6875H43.4375V47.6875H75.9375V45.6875ZM43.4375 45.6875C41.7046 45.6875 40.375 44.3579 40.375 42.625H38.375C38.375 45.4624 40.6001 47.6875 43.4375 47.6875V45.6875ZM40.375 42.625C40.375 40.9987 41.7248 39.5625 43.4375 39.5625V37.5625C40.5799 37.5625 38.375 39.9349 38.375 42.625H40.375ZM43.4375 39.5625H75.9375V37.5625H43.4375V39.5625ZM75.9375 59.875C77.5434 59.875 79 61.3316 79 62.9375H81C81 60.227 78.648 57.875 75.9375 57.875V59.875ZM79 62.9375C79 64.6502 77.5638 66 75.9375 66V68C78.6276 68 81 65.7951 81 62.9375H79ZM75.9375 66H43.4375V68H75.9375V66ZM43.4375 66C41.7046 66 40.375 64.6704 40.375 62.9375H38.375C38.375 65.7749 40.6001 68 43.4375 68V66ZM40.375 62.9375C40.375 61.3112 41.7248 59.875 43.4375 59.875V57.875C40.5799 57.875 38.375 60.2474 38.375 62.9375H40.375ZM43.4375 59.875H75.9375V57.875H43.4375V59.875Z" fill="#262626"/>
</svg>
